# xmcd CD database file
# Copyright (C) 1996 Ti Kan
#
# Track frame offsets:
#	150
#	18696
#	37230
#	54888
#	75151
#	92199
#	109618
#	133727
#	155116
#	175447
#	192076
#	216997
#	230930
#	243903
# Disc length: 3443 seconds
#
# Revision: 4
# Processed by: cddbd v1.4PL0 Copyright (c) Steve Scherf et al.
# Submitted via: CDCOPY 4.744
#
DISCID=c30d710e
DTITLE=Aaschglatt - schwabenrock.de [CD1)
DYEAR=1900
DGENRE=
TTITLE0=Made in Germany
TTITLE1=Marie
TTITLE2=Alexandra
TTITLE3=An und für sich
TTITLE4=Alles wird wieder gut
TTITLE5=Schrei!
TTITLE6=Fett
TTITLE7=Kein Kommentar
TTITLE8=Irgendwann
TTITLE9=Mehr
TTITLE10=Bloody Mary
TTITLE11=Wolke 4
TTITLE12=Nachruf
TTITLE13=Das letzte Lied
EXTD=
EXTT0=
EXTT1=
EXTT2=
EXTT3=
EXTT4=
EXTT5=
EXTT6=
EXTT7=
EXTT8=
EXTT9=
EXTT10=
EXTT11=
EXTT12=
EXTT13=
PLAYORDER=
